<svg xmlns="http://www.w3.org/2000/svg" width="800" height="600" viewBox="0 0 800 600">
  <defs><style>
  @import url('https://fonts.googleapis.com/css2?family=JetBrains+Mono:wght@400;600;700&amp;display=swap');
  @import url('https://fonts.googleapis.com/css2?family=Inter:wght@400;500&amp;display=swap');
</style></defs>
  <!-- Background -->
  <rect width="800" height="600" fill="#0B1220"/>

  <!-- Title -->
  <text x="40" y="52" font-family="'JetBrains Mono', monospace" font-weight="700" font-size="28" letter-spacing="-1" fill="#F8FAFC">Terecode</text>
  <text x="40" y="70" font-family="'Inter', sans-serif" font-weight="400" font-size="11" letter-spacing="1.2" fill="#64748B">BRAND IDENTITY SYSTEM</text>

  <!-- Divider -->
  <line x1="40" y1="86" x2="760" y2="86" stroke="#243050" stroke-width="1"/>

  <!-- Symbol — color -->
  <rect x="40" y="110" width="100" height="100" rx="8" fill="#1a2540"/>
    
    <rect x="61" y="21" width="18" height="18" rx="42.5" fill="#2563EB" opacity="0.38"/>
    <rect x="82" y="21" width="18" height="18" rx="42.5" fill="#2563EB"/>
    <rect x="103" y="21" width="18" height="18" rx="42.5" fill="#2563EB" opacity="0.38"/>
    <rect x="82" y="42" width="18" height="18" rx="42.5" fill="#2563EB" opacity="0.65"/>
    <rect x="82" y="63" width="18" height="18" rx="42.5" fill="#14B8A6" opacity="0.75"/>
  <text x="90" y="230" text-anchor="middle" font-family="'Inter', sans-serif" font-size="10" fill="#64748B" letter-spacing="0.5">symbol-color</text>

  <!-- Horizontal lockup — dark -->
  <rect x="180" y="110" width="320" height="100" rx="8" fill="#0B1220"/>
  <rect x="180" y="110" width="320" height="100" rx="8" fill="none" stroke="#243050" stroke-width="1"/>
    
    <rect x="203" y="133" width="18" height="18" rx="2.5" fill="#2563EB" opacity="0.38"/>
    <rect x="224" y="133" width="18" height="18" rx="2.5" fill="#2563EB"/>
    <rect x="245" y="133" width="18" height="18" rx="2.5" fill="#2563EB" opacity="0.38"/>
    <rect x="224" y="154" width="18" height="18" rx="2.5" fill="#2563EB" opacity="0.65"/>
    <rect x="224" y="175" width="18" height="18" rx="2.5" fill="#14B8A6" opacity="0.75"/>
  <text x="278" y="162" font-family="'JetBrains Mono', monospace" font-weight="600" font-size="20" letter-spacing="-0.4" fill="#F8FAFC">Terecode</text>
  <text x="278" y="177" font-family="'Inter', sans-serif" font-weight="400" font-size="9" letter-spacing="1" fill="#64748B">CROSS-PLATFORM UI COMPILER</text>
  <text x="340" y="228" text-anchor="middle" font-family="'Inter', sans-serif" font-size="10" fill="#64748B" letter-spacing="0.5">lockup-horizontal-dark</text>

  <!-- Horizontal lockup — light -->
  <rect x="540" y="110" width="220" height="100" rx="8" fill="#F8FAFC"/>
  
  <rect x="23" y="3" width="18" height="18" rx="2.5" fill="#2563EB" opacity="0.38"/>
  <rect x="44" y="3" width="18" height="18" rx="2.5" fill="#2563EB"/>
  <rect x="65" y="3" width="18" height="18" rx="2.5" fill="#2563EB" opacity="0.38"/>
  <rect x="44" y="24" width="18" height="18" rx="2.5" fill="#2563EB" opacity="0.65"/>
  <rect x="44" y="45" width="18" height="18" rx="2.5" fill="#14B8A6" opacity="0.75"/>
  <rect x="556" y="113" width="64" height="64" rx="0" fill="none"/>
  <text x="634" y="153" font-family="'JetBrains Mono', monospace" font-weight="600" font-size="16" letter-spacing="-0.3" fill="#0B1220">Terecode</text>
  <text x="634" y="168" font-family="'Inter', sans-serif" font-weight="400" font-size="9" letter-spacing="0.8" fill="#64748B">UI COMPILER</text>
  <text x="650" y="228" text-anchor="middle" font-family="'Inter', sans-serif" font-size="10" fill="#64748B" letter-spacing="0.5">lockup-horizontal</text>

  <!-- Favicon sizes -->
  <text x="40" y="270" font-family="'JetBrains Mono', monospace" font-weight="600" font-size="10" fill="#64748B" letter-spacing="1">FAVICON</text>
  <rect x="40" y="284" width="64" height="64" rx="6" fill="#1a2540"/>
  
  <rect x="43" y="287" width="18" height="18" rx="2.5" fill="#2563EB" opacity="0.38"/>
  <rect x="64" y="287" width="18" height="18" rx="2.5" fill="#2563EB"/>
  <rect x="85" y="287" width="18" height="18" rx="2.5" fill="#2563EB" opacity="0.38"/>
  <rect x="64" y="308" width="18" height="18" rx="2.5" fill="#2563EB" opacity="0.65"/>
  <rect x="64" y="329" width="18" height="18" rx="2.5" fill="#14B8A6" opacity="0.75"/>
  <rect x="120" y="300" width="32" height="32" rx="4" fill="#1a2540"/>
  <rect x="170" y="308" width="16" height="16" rx="2" fill="#1a2540"/>

  <!-- Palette -->
  <text x="240" y="270" font-family="'JetBrains Mono', monospace" font-weight="600" font-size="10" fill="#64748B" letter-spacing="1">PALETTE</text>
  
  <rect x="240" y="284" width="64" height="40" rx="4" fill="#0B1220" stroke="#243050" stroke-width="0"/>
  <text x="272" y="340" text-anchor="middle" font-family="'Inter', sans-serif" font-size="9" fill="#64748B">Deep Ink</text>
  <rect x="316" y="284" width="64" height="40" rx="4" fill="#2563EB" stroke="#243050" stroke-width="0"/>
  <text x="348" y="340" text-anchor="middle" font-family="'Inter', sans-serif" font-size="9" fill="#64748B">Dev Blue</text>
  <rect x="392" y="284" width="64" height="40" rx="4" fill="#4F46E5" stroke="#243050" stroke-width="0"/>
  <text x="424" y="340" text-anchor="middle" font-family="'Inter', sans-serif" font-size="9" fill="#64748B">Indigo</text>
  <rect x="468" y="284" width="64" height="40" rx="4" fill="#14B8A6" stroke="#243050" stroke-width="0"/>
  <text x="500" y="340" text-anchor="middle" font-family="'Inter', sans-serif" font-size="9" fill="#64748B">Teal</text>
  <rect x="544" y="284" width="64" height="40" rx="4" fill="#64748B" stroke="#243050" stroke-width="0"/>
  <text x="576" y="340" text-anchor="middle" font-family="'Inter', sans-serif" font-size="9" fill="#64748B">Slate</text>
  <rect x="620" y="284" width="64" height="40" rx="4" fill="#E2E8F0" stroke="#243050" stroke-width="1"/>
  <text x="652" y="340" text-anchor="middle" font-family="'Inter', sans-serif" font-size="9" fill="#64748B">Soft Gray</text>
  <rect x="696" y="284" width="64" height="40" rx="4" fill="#F8FAFC" stroke="#243050" stroke-width="1"/>
  <text x="728" y="340" text-anchor="middle" font-family="'Inter', sans-serif" font-size="9" fill="#64748B">Off-white</text>
</svg>